<?xml version="1.0" standalone="no"?>
<!DOCTYPE svg PUBLIC "-//W3C//DTD SVG 20010904//EN"
 "http://www.w3.org/TR/2001/REC-SVG-20010904/DTD/svg10.dtd">
<svg version="1.0" xmlns="http://www.w3.org/2000/svg"
 width="512.000000pt" height="512.000000pt" viewBox="0 0 512.000000 512.000000"
 preserveAspectRatio="xMidYMid meet">

<g transform="translate(0.000000,512.000000) scale(0.100000,-0.100000)"
fill="#000000" stroke="none">
<path d="M1604 4526 c-44 -20 -71 -59 -84 -122 -13 -63 -7 -99 27 -170 l25
-52 -59 -73 c-33 -41 -72 -95 -86 -120 -14 -25 -39 -54 -54 -64 -190 -125
-301 -406 -249 -628 11 -46 16 -115 16 -213 l0 -144 -27 0 c-21 0 -55 28 -158
130 -163 161 -224 192 -312 159 -75 -28 -103 -95 -79 -188 25 -99 130 -270
233 -381 49 -54 55 -64 45 -81 -7 -10 -12 -25 -12 -32 0 -19 89 -102 173 -161
l69 -49 -6 -41 c-3 -23 -8 -113 -12 -202 -7 -176 1 -215 50 -248 18 -12 24
-27 29 -78 9 -95 41 -207 84 -294 45 -91 146 -204 222 -249 28 -16 51 -34 51
-39 0 -5 -11 -38 -25 -73 -37 -92 -68 -246 -69 -345 -1 -78 1 -89 23 -112 36
-38 99 -36 182 6 81 42 229 187 281 277 21 36 39 69 41 74 1 5 59 -1 127 -12
182 -31 303 -40 505 -41 205 0 348 11 518 41 65 12 119 19 121 17 1 -1 21 -34
43 -73 100 -171 282 -315 397 -315 57 0 87 32 94 99 6 70 -23 237 -64 360 -19
57 -33 105 -32 106 2 1 18 10 36 19 51 26 173 148 211 210 58 97 111 271 111
366 0 31 6 43 29 59 48 34 54 70 46 274 -4 100 -9 190 -11 199 -4 12 13 29 56
58 34 23 89 68 123 100 62 58 62 58 50 91 -12 32 -11 34 40 88 155 164 266
387 239 479 -26 87 -114 123 -210 87 -36 -14 -80 -50 -183 -152 -106 -104
-141 -133 -162 -133 l-27 0 0 143 c1 88 6 165 15 202 32 130 9 303 -55 424
-37 69 -105 149 -173 203 -27 21 -65 64 -84 96 -19 31 -57 83 -85 115 l-50 58
28 52 c24 44 29 63 29 122 -1 79 -20 123 -68 159 -64 47 -175 9 -238 -82 l-33
-49 -63 28 c-369 166 -923 162 -1303 -10 l-44 -20 -33 49 c-55 81 -154 125
-219 96z m106 -56 c21 -11 53 -40 69 -64 l31 -44 -24 -15 c-22 -15 -25 -14
-57 19 -42 44 -79 64 -119 64 -23 0 -30 -4 -30 -20 0 -11 6 -23 14 -26 8 -3
12 -12 9 -21 -8 -21 14 -32 53 -26 25 4 34 1 43 -15 9 -17 4 -25 -38 -60 l-49
-42 -14 23 c-47 71 -46 171 3 219 33 33 56 35 109 8z m1799 4 c29 -21 51 -72
51 -121 0 -37 -29 -115 -47 -126 -5 -3 -30 12 -56 34 -40 35 -45 43 -36 60 8
15 19 20 42 18 38 -4 60 8 53 26 -2 7 2 16 10 19 8 3 14 15 14 26 0 46 -111
10 -160 -52 -20 -26 -22 -27 -45 -12 l-25 16 31 44 c30 45 87 83 124 84 11 0
31 -7 44 -16z m-669 -9 c210 -35 400 -109 545 -213 68 -50 170 -147 211 -203
38 -52 42 -64 17 -51 -33 17 -162 42 -218 42 -31 0 -88 -7 -127 -16 -295 -67
-487 -306 -488 -603 l0 -84 -22 20 c-13 11 -33 26 -45 32 -13 6 -23 18 -23 26
0 7 -12 23 -27 35 -24 19 -38 21 -105 18 -81 -3 -121 -22 -143 -66 -6 -11 -25
-34 -43 -50 l-32 -30 0 92 c0 179 -57 316 -184 441 -48 47 -106 93 -143 113
-131 69 -298 89 -438 52 -38 -10 -72 -16 -74 -14 -2 2 16 29 39 59 156 203
435 348 765 399 125 20 416 20 535 1z m-931 -506 c227 -77 382 -293 382 -533
0 -165 -49 -284 -166 -402 -83 -85 -175 -135 -288 -158 -94 -20 -132 -20 -222
-1 -311 65 -512 377 -440 684 49 208 221 379 428 427 84 19 223 11 306 -17z
m1668 1 c131 -45 254 -150 317 -269 47 -90 66 -167 66 -269 0 -161 -50 -283
-165 -398 -90 -90 -184 -139 -312 -161 -80 -13 -99 -13 -178 1 -277 47 -475
280 -475 556 0 186 95 367 248 472 49 34 146 75 206 88 68 15 224 4 293 -20z
m-862 -635 c31 -30 34 -84 5 -110 -17 -15 -28 -17 -77 -10 -71 10 -112 10
-180 0 -38 -5 -57 -4 -68 5 -21 17 -19 63 4 91 17 21 24 22 127 20 85 -2 113
1 129 13 27 21 32 20 60 -9z m95 -99 c0 -7 16 -46 36 -85 69 -139 205 -254
361 -307 99 -34 253 -38 348 -10 135 40 270 135 341 240 l34 51 0 -103 0 -102
-82 -41 c-171 -86 -393 -144 -744 -194 -256 -36 -357 -44 -544 -44 -187 0
-288 8 -544 44 -354 51 -583 111 -746 196 l-80 41 1 97 c0 93 1 95 17 71 38
-56 135 -148 194 -183 99 -59 205 -88 318 -89 116 0 170 13 280 64 115 55 219
158 278 277 39 77 42 81 51 58 12 -32 48 -57 82 -57 25 0 27 -3 33 -71 l7 -72
95 6 c52 3 102 11 110 17 9 8 14 32 14 66 0 48 2 54 20 54 38 0 78 29 91 64
12 33 29 40 29 12z m-2042 -55 c51 -27 288 -266 272 -276 -19 -12 -115 -146
-142 -199 l-24 -48 -53 58 c-111 124 -213 311 -215 391 -1 37 4 49 27 69 35
30 84 31 135 5z m3720 -1 c35 -32 38 -67 13 -138 -37 -105 -153 -285 -234
-360 l-24 -23 -14 33 c-17 42 -92 154 -130 193 l-29 31 128 126 c70 69 141
133 157 142 44 22 106 20 133 -4z m-1958 -61 c0 -43 -3 -50 -17 -47 -14 2 -19
15 -21 51 -3 42 -1 47 17 47 18 0 21 -6 21 -51z m90 7 c0 -40 -11 -56 -36 -56
-2 0 -4 23 -4 50 0 43 3 50 20 50 17 0 20 -7 20 -44z m-1500 -233 c0 -5 -7
-36 -15 -71 -16 -68 -35 -252 -35 -344 0 -35 -4 -58 -11 -58 -13 0 -115 78
-148 114 l-24 26 19 42 c10 24 38 77 61 118 57 101 154 210 153 173z m2937
-35 c21 -24 53 -63 70 -88 37 -54 103 -184 103 -203 0 -21 -143 -147 -167
-147 -6 0 -13 48 -17 106 -6 95 -32 273 -51 347 -11 41 15 35 62 -15z m-2809
-22 c168 -84 406 -147 747 -196 452 -65 673 -66 1103 -5 355 51 603 115 770
199 79 40 92 35 37 -13 -105 -92 -361 -160 -940 -251 -201 -31 -635 -26 -886
10 -241 35 -570 112 -729 171 -64 24 -172 88 -178 107 -5 18 1 16 76 -22z
m2722 -73 c21 -123 30 -225 40 -477 6 -137 13 -252 16 -257 13 -22 -10 -105
-36 -129 -35 -32 -275 -121 -405 -150 -55 -12 -155 -35 -222 -51 -357 -85
-711 -105 -1173 -68 -185 15 -289 33 -560 100 -240 59 -450 130 -500 169 l-25
19 2 168 c5 327 32 733 50 733 3 0 30 -16 61 -35 99 -60 388 -144 682 -199
534 -99 938 -86 1561 49 265 58 401 108 458 169 14 14 28 26 32 26 4 0 12 -30
19 -67z m-2689 -987 c87 -31 473 -132 600 -156 119 -23 296 -41 523 -52 363
-17 656 7 971 82 72 17 171 40 220 51 50 12 140 39 200 61 61 22 118 42 128
45 24 7 23 -41 -4 -143 -28 -108 -65 -188 -120 -256 -88 -110 -166 -161 -371
-242 -261 -104 -432 -136 -773 -143 -491 -11 -801 49 -1130 220 -108 56 -209
156 -260 256 -46 93 -103 311 -81 311 2 0 46 -15 97 -34z m361 -645 c52 -22
125 -49 161 -61 37 -12 67 -27 67 -33 -1 -52 -152 -230 -252 -297 -147 -98
-194 -67 -169 111 19 128 75 319 94 319 3 0 47 -18 99 -39z m1966 -18 c33 -92
41 -124 57 -214 18 -99 19 -163 5 -190 -28 -51 -154 5 -271 121 -64 64 -149
183 -149 209 0 4 24 15 53 24 28 10 99 37 157 61 58 24 110 45 116 45 6 1 21
-25 32 -56z"/>
<path d="M1614 3553 c-101 -50 -76 -202 36 -214 66 -7 118 33 127 99 6 42 5
42 -26 42 -34 0 -52 23 -32 43 17 17 13 24 -20 36 -40 14 -47 13 -85 -6z"/>
<path d="M3370 3552 c-44 -21 -74 -79 -65 -121 27 -125 197 -126 228 -3 8 34
-2 52 -29 52 -28 0 -43 25 -25 43 17 17 13 24 -20 36 -42 14 -48 14 -89 -7z"/>
<path d="M1810 2430 c-26 -26 -27 -90 -2 -113 9 -9 39 -22 65 -29 26 -7 46
-15 45 -18 -8 -18 -171 -152 -209 -172 -69 -36 -80 -112 -20 -142 36 -19 249
-74 315 -82 58 -7 81 9 92 63 8 43 -27 78 -87 88 -24 4 -50 10 -57 14 -8 5 26
41 98 105 61 54 113 96 116 94 2 -3 -9 -76 -26 -164 -33 -176 -31 -203 18
-223 55 -22 307 -40 347 -25 9 4 21 18 27 33 10 25 10 25 18 6 14 -36 40 -49
95 -49 76 0 95 19 95 98 l0 61 45 -67 c49 -73 69 -84 136 -75 51 7 79 32 79
69 0 21 -14 44 -51 83 l-51 54 26 31 c14 18 26 38 26 46 0 34 18 1 24 -45 8
-63 58 -138 111 -168 30 -17 56 -23 106 -23 192 0 313 130 278 299 -15 73 -38
115 -97 178 -71 75 -146 89 -248 47 -77 -32 -152 -134 -155 -209 -1 -27 -3
-25 -15 16 -16 53 -54 95 -101 115 -47 20 -271 19 -300 -1 -18 -12 -23 -13
-32 -1 -8 9 -42 17 -89 21 -42 3 -110 11 -151 16 -62 8 -78 7 -99 -7 -22 -15
-25 -14 -48 7 -15 14 -67 34 -146 55 -146 39 -152 40 -178 14z m157 -50 c119
-31 163 -56 163 -91 0 -10 -59 -71 -135 -139 -74 -67 -133 -125 -131 -129 3
-4 43 -16 90 -26 47 -9 90 -23 95 -29 16 -20 1 -56 -23 -56 -28 0 -290 66
-316 80 -35 19 -22 62 22 71 18 4 268 218 268 230 0 4 -33 15 -72 24 -40 10
-79 22 -85 28 -18 14 -16 67 3 67 1 0 56 -14 121 -30z m1315 -3 c41 -18 126
-121 139 -170 7 -23 12 -66 11 -96 -1 -108 -91 -183 -227 -189 -60 -3 -75 -1
-105 20 -49 33 -76 79 -89 149 -13 77 0 150 36 198 35 46 56 62 112 83 54 20
86 22 123 5z m-912 -67 c69 -6 126 -12 126 -13 4 -4 6 -32 5 -51 -1 -18 -7
-19 -103 -12 l-103 6 -2 -54 -2 -53 81 -7 c91 -8 98 -10 98 -35 0 -34 -21 -40
-107 -32 -93 8 -93 8 -93 -76 0 -43 0 -43 38 -43 20 0 68 -3 105 -7 71 -6 94
-23 81 -57 -7 -19 -86 -21 -214 -6 -101 13 -117 17 -123 33 -2 7 9 86 26 176
24 128 28 167 19 182 -17 26 2 72 26 65 9 -3 73 -10 142 -16z m475 -24 c46
-20 68 -57 69 -118 1 -45 -2 -53 -37 -85 l-38 -35 60 -68 c34 -38 61 -73 61
-79 0 -15 -35 -31 -69 -31 -33 0 -54 23 -106 113 -25 43 -31 48 -59 45 l-31
-3 0 -79 c0 -76 -1 -79 -26 -88 -16 -5 -37 -5 -53 2 l-28 10 3 175 c3 129 1
177 -9 187 -13 13 -16 50 -5 61 13 14 233 7 268 -7z m-295 -241 c-4 -127 -7
-146 -17 -123 -17 37 -35 45 -135 53 -80 6 -88 9 -88 27 0 20 4 20 75 14 71
-6 76 -6 100 18 30 30 33 78 6 105 -12 12 -41 21 -85 25 -40 5 -66 12 -66 19
0 9 24 11 84 9 65 -3 86 -1 97 11 28 31 34 -4 29 -158z"/>
<path d="M3147 2286 c-62 -57 -40 -244 33 -284 35 -20 104 -1 128 36 25 39 20
119 -12 185 -14 30 -26 59 -26 64 0 32 -89 31 -123 -1z m83 -26 c0 -6 9 -23
20 -38 29 -40 43 -117 28 -149 -18 -36 -63 -51 -88 -28 -42 38 -51 185 -14
212 21 16 54 17 54 3z"/>
<path d="M2673 2219 c13 -8 17 -23 17 -64 l0 -55 38 0 c51 0 82 23 82 61 0 59
-13 69 -88 69 -50 -1 -63 -3 -49 -11z m95 -51 c-5 -34 -38 -37 -38 -4 0 20 5
26 21 26 15 0 20 -5 17 -22z"/>
</g>
</svg>
